<svg width="400" height="400" viewBox="0 0 400 400" fill="none" xmlns="http://www.w3.org/2000/svg">
<path d="M13.4971 206.258L16.1965 205.092L49.448 190.614L85.3989 206.258L71.902 234.172L38.8958 238.834L14.0492 212.025L13.4971 206.258Z" fill="#133444"/>
<path d="M77.976 189.08C72.0251 181.902 63.6202 177.301 54.4177 176.074L53.8043 176.012C50.9208 175.644 48.0374 175.644 45.1539 176.012L44.5404 176.074C35.338 177.301 26.9331 181.963 20.9822 189.08L19.5098 191.534L16.9944 195.644L15.1539 198.65C15.1539 198.712 15.0926 198.834 15.0312 198.896V198.957L19.019 201.35L44.4791 216.442L49.3871 219.325V183.313L44.4791 185.522V180.123L49.3871 177.914L54.2951 180.123L79.3257 191.534L77.976 189.08Z" fill="#C42370"/>
<path d="M86.5038 215.215C86.4425 227.055 81.105 238.221 71.9639 245.706C68.467 248.589 64.5406 250.736 60.2461 252.209C56.7492 253.374 53.1296 253.926 49.4486 253.926C28.9578 253.926 12.332 235.706 12.332 215.215C12.332 212.209 12.7001 209.203 13.4363 206.258L49.3872 227.546L85.3382 206.258C86.1357 209.203 86.5651 212.209 86.5038 215.215Z" fill="#1C4D6B"/>
<path d="M45.1535 176.013L49.448 177.914L44.54 180.184V175.706L45.1535 176.013Z" fill="black"/>
<path d="M44.54 185.583L49.448 183.313V219.387L44.54 216.442V185.583Z" fill="black"/>
<path d="M49.4492 183.313V219.387L83.9278 199.019L49.4492 183.313Z" fill="#1D4259"/>
<path d="M49.4492 141.841V183.313L83.9278 199.019L49.4492 141.841Z" fill="#4B6B9A"/>
<path d="M49.4483 183.313V219.325L44.5403 216.442L15.0311 199.018H14.9697H15.0311C15.0311 198.957 15.0924 198.834 15.1538 198.773L19.4483 191.595L44.4789 180.245V185.583L49.4483 183.313Z" fill="#343535"/>
<path d="M49.4484 183.313V219.387L44.5404 216.442L15.0312 199.019L15.0926 198.957L44.5404 185.583L49.4484 183.313Z" fill="#3E5578"/>
<path d="M49.4484 141.841V183.313L15.0312 199.019L49.4484 141.841Z" fill="#6DB2D8"/>
<path d="M35.5225 250.982C36.0133 251.227 36.5654 251.411 37.0562 251.595C36.5654 251.411 36.0746 251.166 35.5225 250.982Z" fill="#335F8A"/>
<path d="M37.0557 251.595C37.5465 251.779 38.0986 252.025 38.6508 252.147C38.16 252.025 37.6078 251.841 37.0557 251.595Z" fill="#335F8A"/>
<path d="M40.0625 252.577C40.4919 252.7 40.86 252.822 41.2895 252.884C40.86 252.822 40.4306 252.7 40.0625 252.577Z" fill="#335F8A"/>
<path d="M13.4978 206.258L49.4488 227.546C48.958 230.798 48.0991 233.927 46.8721 236.994C43.9886 243.988 38.2218 251.35 26.9334 245.706C17.7923 238.221 12.4549 227.055 12.3936 215.215C12.3936 212.209 12.7617 209.203 13.4978 206.258Z" fill="#6DB2D8"/>
<path d="M71.9634 245.706L71.8407 245.767C71.6566 245.89 71.4726 246.074 71.2885 246.196L71.2272 246.258C71.0431 246.442 70.7977 246.564 70.6137 246.749C70.3683 246.933 70.1842 247.117 69.9388 247.239C69.6934 247.362 69.448 247.546 69.264 247.73C69.0186 247.914 68.8345 247.976 68.6505 248.16L68.5278 248.221C68.2824 248.344 68.0983 248.466 67.9143 248.65C67.9143 248.65 67.8529 248.65 67.8529 248.712C67.6075 248.834 67.4235 248.957 67.1781 249.141C66.9327 249.264 66.6873 249.387 66.4419 249.571C66.1965 249.693 65.9511 249.816 65.7057 249.939L64.9695 250.307C64.7241 250.43 64.4787 250.552 64.2333 250.675C63.9879 250.798 63.7425 250.92 63.4971 251.043C63.0063 251.288 62.4542 251.472 61.9634 251.657C61.4726 251.841 60.9204 252.025 60.3683 252.209C60.1842 252.27 59.9388 252.331 59.7548 252.393L59.0186 252.638C58.5891 252.761 58.221 252.883 57.7916 252.945C57.6689 253.006 57.4848 253.006 57.3008 253.068L57.0554 253.129L56.3805 253.252C56.1351 253.313 56.0124 253.313 55.767 253.374C55.583 253.436 55.3989 253.436 55.2149 253.497C55.0308 253.497 54.7854 253.558 54.6014 253.62C54.4787 253.62 54.4173 253.62 54.2946 253.681L53.8038 253.742H53.5584C53.3744 253.742 53.1903 253.804 53.0676 253.804C52.8836 253.804 52.6382 253.865 52.4542 253.865C52.2701 253.865 52.1474 253.865 51.9634 253.865C51.7793 253.865 51.6566 253.865 51.5339 253.865C51.3499 253.865 51.1658 253.865 51.0431 253.865C50.9204 253.865 50.5523 253.865 50.3683 253.865H48.8959C48.6505 253.865 48.4051 253.865 48.221 253.865C48.037 253.865 47.8529 253.865 47.7302 253.865C47.6075 253.865 47.4235 253.865 47.3008 253.865C47.1781 253.865 46.994 253.865 46.81 253.865C46.6259 253.865 46.3805 253.804 46.1965 253.804C46.0124 253.804 45.8284 253.804 45.7057 253.742H45.4603C45.3376 253.742 45.1535 253.681 44.9695 253.681C44.8468 253.681 44.7854 253.681 44.6627 253.62C44.4787 253.62 44.2333 253.558 44.0492 253.497C43.8652 253.497 43.6811 253.436 43.4971 253.374C43.313 253.374 43.0677 253.313 42.8836 253.252C42.6996 253.19 42.4542 253.129 42.2088 253.129L41.9634 253.068C41.7793 253.068 41.5953 253.006 41.4726 253.006C41.0431 252.883 40.6137 252.761 40.2456 252.699L39.5094 252.454C39.264 252.393 39.0799 252.331 38.8959 252.27C38.3437 252.086 37.8529 251.902 37.3008 251.718C36.7486 251.534 36.2578 251.288 35.767 251.104C35.5216 250.982 35.2762 250.859 35.0308 250.736L34.2946 250.368L33.5584 250C33.3131 249.877 33.0677 249.755 32.8223 249.632C32.5769 249.509 32.3315 249.387 32.0861 249.203C31.8407 249.08 31.6566 248.957 31.4112 248.773L31.3499 248.712C31.1045 248.589 30.9204 248.466 30.7364 248.282L30.6137 248.221C30.4296 248.098 30.1842 247.976 30.0002 247.791C29.8161 247.669 29.5094 247.485 29.3253 247.301C29.0799 247.117 28.8345 246.994 28.6505 246.81L28.037 246.319L27.9756 246.258C27.7916 246.135 27.6075 245.951 27.4235 245.828L27.3008 245.767C38.5278 251.35 44.356 243.988 47.2394 237.055C48.4664 234.049 49.3253 230.859 49.8161 227.607C50.3069 230.859 51.1658 233.988 52.3928 237.055C54.9081 243.926 60.7364 251.288 71.9634 245.706Z" fill="#529BBA"/>
<path d="M57.6689 252.945C58.0984 252.822 58.5278 252.7 58.8959 252.638C58.5278 252.7 58.0984 252.822 57.6689 252.945Z" fill="#335F8A"/>
<path d="M60.2461 252.147C60.7982 251.963 61.289 251.779 61.8412 251.595C61.3504 251.841 60.7982 252.025 60.2461 252.147Z" fill="#335F8A"/>
<path d="M61.8408 251.595C62.3316 251.411 62.8838 251.166 63.3746 250.982C62.8838 251.166 62.393 251.411 61.8408 251.595Z" fill="#335F8A"/>
<path d="M86.5044 215.215C86.4431 227.055 81.1057 238.221 71.9646 245.706C60.7376 251.288 54.9093 243.927 52.0259 236.994C50.7989 233.988 49.94 230.798 49.4492 227.546L85.4002 206.258C86.1363 209.203 86.5044 212.209 86.5044 215.215Z" fill="#4B6B9A"/>
</svg>
